HIERARCHY
ROOT Hips
{
	OFFSET -14.64140 90.27770 -84.91600
	CHANNELS 6 Xposition Yposition Zposition Zrotation Xrotation Yrotation
	JOINT Spine
	{
		OFFSET 0.00000 13.20850 -1.60436
		CHANNELS 3 Zrotation Xrotation Yrotation
		JOINT Spine1
		{
			OFFSET 0.00000 8.61716 0.00000
			CHANNELS 3 Zrotation Xrotation Yrotation
			JOINT Spine2
			{
				OFFSET 0.00000 8.61717 0.00000
				CHANNELS 3 Zrotation Xrotation Yrotation
				JOINT Spine3
				{
					OFFSET 0.00000 8.61717 0.00000
					CHANNELS 3 Zrotation Xrotation Yrotation
					JOINT Neck
					{
						OFFSET 0.00000 11.07920 1.10792
						CHANNELS 3 Zrotation Xrotation Yrotation
						JOINT Neck1
						{
							OFFSET 0.00000 7.08032 0.00000
							CHANNELS 3 Zrotation Xrotation Yrotation
							JOINT Head
							{
								OFFSET 0.00000 7.08031 0.00000
								CHANNELS 3 Zrotation Xrotation Yrotation
								End site
								{
									OFFSET 0.00000 0.00000 0.00000
								}
							}
						}
					}
					JOINT RightShoulder
					{
						OFFSET -0.01000 7.91373 5.19711
						CHANNELS 3 Zrotation Xrotation Yrotation
						JOINT RightArm
						{
							OFFSET -18.41580 0.00000 0.00000
							CHANNELS 3 Zrotation Xrotation Yrotation
							JOINT RightForeArm
							{
								OFFSET -29.11090 0.00000 0.00000
								CHANNELS 3 Zrotation Xrotation Yrotation
								JOINT RightHand
								{
									OFFSET -24.65040 0.00000 0.00000
									CHANNELS 3 Zrotation Xrotation Yrotation
									JOINT RightHandThumb1
									{
										OFFSET -5.35114 -0.85590 3.97906
										CHANNELS 3 Zrotation Xrotation Yrotation
										JOINT RightHandThumb2
										{
											OFFSET -4.52789 0.00000 0.00000
											CHANNELS 3 Zrotation Xrotation Yrotation
											JOINT RightHandThumb3
											{
												OFFSET -2.46976 0.00000 0.00000
												CHANNELS 3 Zrotation Xrotation Yrotation
												End site
												{
													OFFSET 0.00000 0.00000 0.00000
												}
											}
										}
									}
									JOINT RightHandIndex1
									{
										OFFSET -14.26970 0.00000 2.88139
										CHANNELS 3 Zrotation Xrotation Yrotation
										JOINT RightHandIndex2
										{
											OFFSET -5.48836 0.00000 0.00000
											CHANNELS 3 Zrotation Xrotation Yrotation
											JOINT RightHandIndex3
											{
												OFFSET -3.01859 0.00000 0.00000
												CHANNELS 3 Zrotation Xrotation Yrotation
												End site
												{
													OFFSET 0.00000 0.00000 0.00000
												}
											}
										}
									}
									JOINT RightHandMiddle1
									{
										OFFSET -14.26970 0.00000 -0.09147
										CHANNELS 3 Zrotation Xrotation Yrotation
										JOINT RightHandMiddle2
										{
											OFFSET -6.17441 0.00000 0.00000
											CHANNELS 3 Zrotation Xrotation Yrotation
											JOINT RightHandMiddle3
											{
												OFFSET -3.56743 0.00000 0.00000
												CHANNELS 3 Zrotation Xrotation Yrotation
												End site
												{
													OFFSET 0.00000 0.00000 0.00000
												}
											}
										}
									}
									JOINT RightHandRing1
									{
										OFFSET -12.69180 0.00000 -3.06433
										CHANNELS 3 Zrotation Xrotation Yrotation
										JOINT RightHandRing2
										{
											OFFSET -5.62556 0.00000 0.00000
											CHANNELS 3 Zrotation Xrotation Yrotation
											JOINT RightHandRing3
											{
												OFFSET -3.56744 0.00000 0.00000
												CHANNELS 3 Zrotation Xrotation Yrotation
												End site
												{
													OFFSET 0.00000 0.00000 0.00000
												}
											}
										}
									}
									JOINT RightHandPinky1
									{
										OFFSET -11.11390 0.00000 -6.03719
										CHANNELS 3 Zrotation Xrotation Yrotation
										JOINT RightHandPinky2
										{
											OFFSET -4.52789 0.00000 0.00000
											CHANNELS 3 Zrotation Xrotation Yrotation
											JOINT RightHandPinky3
											{
												OFFSET -2.46976 0.00000 0.00000
												CHANNELS 3 Zrotation Xrotation Yrotation
												End site
												{
													OFFSET 0.00000 0.00000 0.00000
												}
											}
										}
									}
								}
							}
						}
					}
					JOINT LeftShoulder
					{
						OFFSET 0.01000 7.91373 5.19711
						CHANNELS 3 Zrotation Xrotation Yrotation
						JOINT LeftArm
						{
							OFFSET 18.41580 0.00000 0.00000
							CHANNELS 3 Zrotation Xrotation Yrotation
							JOINT LeftForeArm
							{
								OFFSET 29.11090 0.00000 0.00000
								CHANNELS 3 Zrotation Xrotation Yrotation
								JOINT LeftHand
								{
									OFFSET 24.65040 0.00000 0.00000
									CHANNELS 3 Zrotation Xrotation Yrotation
									JOINT LeftHandThumb1
									{
										OFFSET 5.35114 -0.85590 3.97906
										CHANNELS 3 Zrotation Xrotation Yrotation
										JOINT LeftHandThumb2
										{
											OFFSET 4.52789 0.00000 0.00000
											CHANNELS 3 Zrotation Xrotation Yrotation
											JOINT LeftHandThumb3
											{
												OFFSET 2.46977 0.00000 0.00000
												CHANNELS 3 Zrotation Xrotation Yrotation
												End site
												{
													OFFSET 0.00000 0.00000 0.00000
												}
											}
										}
									}
									JOINT LeftHandIndex1
									{
										OFFSET 14.26970 0.00000 2.88139
										CHANNELS 3 Zrotation Xrotation Yrotation
										JOINT LeftHandIndex2
										{
											OFFSET 5.48836 0.00000 0.00000
											CHANNELS 3 Zrotation Xrotation Yrotation
											JOINT LeftHandIndex3
											{
												OFFSET 3.01859 0.00000 0.00000
												CHANNELS 3 Zrotation Xrotation Yrotation
												End site
												{
													OFFSET 0.00000 0.00000 0.00000
												}
											}
										}
									}
									JOINT LeftHandMiddle1
									{
										OFFSET 14.26970 0.00000 -0.09147
										CHANNELS 3 Zrotation Xrotation Yrotation
										JOINT LeftHandMiddle2
										{
											OFFSET 6.17440 0.00000 0.00000
											CHANNELS 3 Zrotation Xrotation Yrotation
											JOINT LeftHandMiddle3
											{
												OFFSET 3.56744 0.00000 0.00000
												CHANNELS 3 Zrotation Xrotation Yrotation
												End site
												{
													OFFSET 0.00000 0.00000 0.00000
												}
											}
										}
									}
									JOINT LeftHandRing1
									{
										OFFSET 12.69180 0.00000 -3.06433
										CHANNELS 3 Zrotation Xrotation Yrotation
										JOINT LeftHandRing2
										{
											OFFSET 5.62556 0.00000 0.00000
											CHANNELS 3 Zrotation Xrotation Yrotation
											JOINT LeftHandRing3
											{
												OFFSET 3.56744 0.00000 0.00000
												CHANNELS 3 Zrotation Xrotation Yrotation
												End site
												{
													OFFSET 0.00000 0.00000 0.00000
												}
											}
										}
									}
									JOINT LeftHandPinky1
									{
										OFFSET 11.11390 0.00000 -6.03719
										CHANNELS 3 Zrotation Xrotation Yrotation
										JOINT LeftHandPinky2
										{
											OFFSET 4.52789 0.00000 0.00000
											CHANNELS 3 Zrotation Xrotation Yrotation
											JOINT LeftHandPinky3
											{
												OFFSET 2.46976 0.00000 0.00000
												CHANNELS 3 Zrotation Xrotation Yrotation
												End site
												{
													OFFSET 0.00000 0.00000 0.00000
												}
											}
										}
									}
								}
							}
						}
					}
					JOINT pCube4
					{
						OFFSET 0.00000 10.91090 1.10792
						CHANNELS 3 Zrotation Xrotation Yrotation
						End site
						{
							OFFSET 0.00000 0.00000 0.00000
						}
					}
				}
			}
		}
	}
	JOINT RightUpLeg
	{
		OFFSET -9.98441 0.00000 0.00000
		CHANNELS 3 Zrotation Xrotation Yrotation
		JOINT RightLeg
		{
			OFFSET 0.00000 -42.11790 0.00000
			CHANNELS 3 Zrotation Xrotation Yrotation
			JOINT RightFoot
			{
				OFFSET 0.00000 -45.00020 -0.00001
				CHANNELS 3 Zrotation Xrotation Yrotation
				JOINT RightForeFoot
				{
					OFFSET 0.00000 -3.74820 0.00000
					CHANNELS 3 Zrotation Xrotation Yrotation
					JOINT RightToeBase
					{
						OFFSET 0.00000 0.06325 14.43120
						CHANNELS 3 Zrotation Xrotation Yrotation
						End site
						{
							OFFSET 0.00000 0.00000 0.00000
						}
					}
				}
			}
		}
	}
	JOINT LeftUpLeg
	{
		OFFSET 9.98441 0.00000 0.00000
		CHANNELS 3 Zrotation Xrotation Yrotation
		JOINT LeftLeg
		{
			OFFSET 0.00000 -42.11800 0.00000
			CHANNELS 3 Zrotation Xrotation Yrotation
			JOINT LeftFoot
			{
				OFFSET 0.00000 -45.00070 0.00000
				CHANNELS 3 Zrotation Xrotation Yrotation
				JOINT LeftForeFoot
				{
					OFFSET 0.00000 -3.74824 0.00000
					CHANNELS 3 Zrotation Xrotation Yrotation
					JOINT LeftToeBase
					{
						OFFSET 0.00000 0.06325 14.43110
						CHANNELS 3 Zrotation Xrotation Yrotation
						End site
						{
							OFFSET 0.00000 0.00000 0.00000
						}
					}
				}
			}
		}
	}
}
MOTION
Frames: 4
Frame Time: 0.050000
0.006958495795131818 -0.013544614732234684 -0.011682015738304762 0.0005683576970958958 -0.01736852154446147 0.022875398484792586 -3.0036768652595196 0.5565168784920176 -0.6884877244330984 -0.9354165423499872 3.7970384614543815 0.3957887883041552 -1.4011561308133318 -2.1477703722191466 0.0676546134817311 0.08306151740273554 0.3439208604438887 -0.6919870544426263 0.7745510036016153 14.106869964678385 -1.618996986305221 0.21120265048925935 0.30952034977274034 -6.352774716847097 0.8777377046001226 -14.547904053791752 -0.5348841659988083 -7.45221404748775 2.3939944030292066 -13.209230922577138 75.14779376050785 10.55392998566205 31.56988204452249 26.80973766933333 5.651041218054988 76.80185933156491 18.073027287459066 -0.3534600955869338 -1.5535563113642197 4.526328307995043 -0.1210611096838655 -1.576180137454901 -0.031135949248422837 0.02990662401860915 -56.24915311449553 -0.04486461673415987 0.049713806545880423 -56.26705935891046 -38.740980902314156 -0.023757944994515553 -0.025711897535718824 0.014157666097443428 0.0293310417982677 -0.03137413799199875 0.008204780059335776 -0.04552710233511147 0.04089229960030666 -36.68862829301439 -0.030170977276284927 0.005302497726563355 -0.03174751070355234 -0.02847331929601582 -0.023451481563545092 0.0071204693392151125 -0.0007556408359031221 0.016423519669901163 -19.806864103735663 0.023379445776672798 -0.0030211894899226685 -0.02455459875792851 -0.026906950477173328 0.019542905325578494 -0.045420870290904934 0.04107951713805961 -0.004357303803734648 24.005369893302436 0.02922282521615217 -0.005332164939585441 28.861968692490038 0.028998961919161955 0.011399299295301145 28.84974511580011 -0.008968402549848709 0.04356902054140289 5.809154764391358 1.3326660175973553 12.060352039034562 -67.81526586778166 24.824293700771303 -12.629965102969958 -15.175308807599798 -1.1715214944784815 -69.72165457761538 -8.846364283952974 3.9235895543725237 -1.7902557045573673 -0.45925478967947814 0.0911672239360428 -8.14353234583213 -0.02871792915507174 -0.0243717353000996 44.56236020297211 -0.00144158639566795 0.02591609028598211 44.58106083307605 12.42914177372574 0.026034492663373408 0.0016232057434226723 0.030618055360631852 -0.04061676600640222 -0.03710915503066686 -0.03360856687549306 -0.007706029573829499 0.025539286051025286 11.125776463993159 0.0018694660646350015 -0.04250122000963711 0.009530908827337935 -0.0011714322028261175 0.0380555328629416 -0.035653216954318015 -0.002274668526113803 -0.005894595240357102 4.788871219507531 -0.008705598799280453 -0.016777042357805284 -0.013258764847897241 -0.03810757857460816 0.04908693891940076 0.02388620089796043 0.03289560986698105 -0.01961094540245712 -5.624356736070015 0.04423928210700819 0.010808499518884167 -6.682525472966056 0.04163352618287329 0.02995080674268135 -6.691567200396177 0.01893800722727439 0.0002497456993963335 0.0327311855183264 0.02732152438458258 -0.027182252085413024 8.08051153998266 3.4975524699688716 -19.20644609051971 -0.004368810913514586 10.412751269744831 -0.006902736599366528 -5.6215892084801915 -15.698257779035538 3.207019876475592 -0.022614457483934296 -0.021062314084558404 0.03287135459513989 0.016225405210746034 4.678457536324331 -0.04066111825720996 12.484704904156652 -8.201253278520737 6.917249046613096 -0.001129355922052297 46.42398626858793 -0.0018392119702716665 -4.329661387575882 -14.7255907916525 -3.8581205230767157 0.003992533249636584 0.04332041636056136 -0.017049868047365142 0.014278018224006138 -10.705597918301637 -0.01288269042646925 
0.010745001679389792 -0.02931018713198177 -0.015042738837098269 0.003968608286934769 0.004932278016370281 -0.03870559806169684 -2.9499681739846637 0.392866461210896 -0.6895269198304506 -0.9318265182780815 3.7621945817513174 0.3507044403048116 -1.345957370436121 -2.2307111989695976 0.008118477674964701 0.11188859456357311 0.21390331593415557 -0.7211312212300898 0.8021330189078317 14.08759544585722 -1.866657246986886 0.20495794647507115 0.35417101787200794 -6.931995098540032 0.9024574607773765 -14.46960580294208 -0.5089767278123555 -7.399482445805662 2.42457188894727 -13.23849276710852 74.56783256428952 9.258804711122714 31.282961323255904 32.20415244683158 5.815517714913856 78.72672030035739 19.02687491698952 -0.304713812489561 -1.8249912469094576 4.519610640927706 -0.10279118998637196 -1.573212791255549 -0.020858402833123412 0.034686409246301335 -56.24010709602869 -0.039860304262208546 0.021348343020984012 -56.26195406360221 -38.7231088244474 -0.034910880703561194 0.02714535695101984 -0.04138176068787518 0.027157930558134483 0.005090123776153262 0.029019324203997103 -0.014739957041328192 0.010244083697562842 -36.65564334120442 0.022981202615146676 0.005450649731561359 0.02481276290484602 -0.0008241096245129091 0.04226254247589747 -0.013084044961068282 0.009337342115134963 -0.015578815919198234 -19.73267093396703 -0.027755305726172137 -0.006475084915722712 -0.047043559422867864 0.017628453805593223 -0.012225317343752193 0.004634015953162782 -0.02175187397878303 0.03168439288319472 24.06382852961239 0.006013279173369543 -0.00926774738812381 28.821374826014722 0.02567422163699043 0.01265739442139657 28.853630491462138 -0.03434997996745584 -0.012709692989530515 6.111100054888644 1.4337215925041078 11.99554056694613 -67.43209259432828 23.01183926235227 -13.900024944357803 -20.864282665407053 2.4795821041429913 -74.2687889668458 -9.31416342212862 3.929400200561387 -1.997723212839916 -0.49993909413106025 0.04804016038164488 -8.13902421598344 0.021775053810255206 -0.042234559432186444 44.561402240765354 0.012906096958821984 -0.010120035616550078 44.585750946243145 12.42743808477595 0.013848058452499486 0.03814746149201171 -0.003217069095133088 -0.014492214931317797 -0.011014851043400465 -0.04143870584935848 -0.030339233153499883 0.005534268615359961 11.13935786031923 -0.011671658679282005 0.016987860050854182 -0.019204716076451155 -0.0004822596954796676 -0.0010026203913234433 -0.01256182031588956 -0.0426443802237858 -0.00032234737956514473 4.787163177283646 0.007260420113080916 0.027396392153281685 -0.03220550769603915 -0.0303517061983283 0.035463955417792244 0.016089841251152613 0.010324151142972289 -0.00594710327838968 -5.558605867520365 -0.02536039545095287 0.003758238883788449 -6.736362832573632 -0.008508955645958872 -0.046303329108963696 -6.700098221045371 0.00966626901310712 -0.04459988599788504 0.022653355177591882 0.0014715222116366835 0.01800081698409686 8.086880856130808 3.5039099035428305 -19.210213030562404 -0.030084000978571168 10.384026624764612 -0.003327466554502289 -5.589034002350177 -15.622192830116933 3.226492944771873 0.047894515033409496 0.03780569943121089 -0.033060402485820636 -0.01931603493031338 4.696509592017969 -0.03504837634968116 12.44848390457085 -8.280103825205614 6.86998217655067 -0.02478085528922399 46.348947377227326 -0.022659729493811422 -4.341901971389816 -14.73248821832642 -3.7959039239676096 -0.04484467412765336 -0.00250615596681628 -0.020833800433000014 0.02430054096258212 -10.697848510886802 -0.013204198401965761 
-0.01614947048032053 -0.03548718901564898 -0.04913364371466895 0.046392877252398955 -0.007033946247314024 0.0415606298792441 -2.784855806167391 0.2466693568423985 -0.6985551528322766 -0.8982078919834086 3.7582533603704635 0.4290627559545648 -1.3443186878055144 -2.2296136308457455 -0.12299071353539215 0.18663539456631 0.19829525438484094 -0.7384037452980728 0.7380289220696318 14.124179574850173 -2.0178644610439544 0.20106726120203416 0.4192577282373231 -7.289398926526303 0.9546369049688238 -14.496019257481459 -0.6276635568189756 -7.48678541477404 2.4339474091226365 -13.206106395993837 73.93477970839679 6.725538352627375 31.70199564699489 39.322100250806315 5.467674631240486 82.71971315435133 19.810716976086997 -0.3942833158281856 -2.0321400139045918 4.5021911982284415 -0.13709595136107897 -1.5869569236439511 -0.03034804747478235 0.011443938710775889 -56.23195852728972 -0.04653288081140345 -0.03782172562380092 -56.20833246778093 -38.74883817231467 -0.025223115712186855 -0.020756511942544235 0.021831052927089617 -0.0014273603149245636 0.013165308496276286 0.010436765343496142 0.003645544803847221 0.04749857022708096 -36.695985170268834 -0.013342590235044137 -0.009106447101849414 -0.02774587901695986 0.03935437318420652 -0.024268292111735305 -0.04100885164569836 0.010441817180901522 -0.023438578222085234 -19.752242447738357 0.022697997438324534 -0.049975983415775235 -0.04360796811194127 -0.04584956194270954 -0.04160082941629079 -0.023504203553061875 -0.04413487295901783 0.04910607368067534 24.0576608569545 -0.028487286746228507 0.0033200081702775388 28.913913415486174 0.00852964318004537 -0.03722580930726156 28.873616645715526 -0.013221018049788988 0.000243146616914939 6.434786305442146 1.530514607794406 11.92748155342942 -67.1774566410433 21.184029405334936 -15.257888033638332 -29.048967915482866 6.025446179064687 -81.10960562980637 -9.971383124960074 3.9989616149433984 -2.415576941542847 -0.43234480517526186 0.045092151727013724 -8.129161086729441 0.027702298594119646 -0.018469701586925232 44.54205052976289 0.008634794669233632 -0.014260672445058322 44.5641005524431 12.479490033055066 0.03827673853208824 0.015811718384608937 -0.006809167183419491 -0.020436365071846336 -0.026338106805228766 0.021872792226897888 -0.018064583407037222 0.04353092485081789 11.091762953147118 0.02296291860148811 -0.012214427776727287 0.02701068297767494 0.04924978692771714 -0.04146258047515325 0.035863727510073884 -0.027257432101842446 0.04221919265896695 4.765157657850885 -0.031680504500392045 -0.028629713904834733 0.009038378540272085 0.009293554407772268 -0.0015480812241076005 0.03776271018340885 0.002385414732133585 -0.02577622006133487 -5.555089772631739 0.004332181710714585 -0.031109361175062175 -6.672571289294822 0.017659707460414967 -0.002227113025916538 -6.723511240595018 -0.03962212914384305 -0.049190533564223725 0.0485957307955997 -0.04854115537206198 -0.0078540851885769 8.032990419803077 3.4816258186244706 -19.24934699974389 -0.007100745526980996 10.377586101464166 0.013407647467560159 -5.616649657844144 -15.656537247238598 3.2033040374278654 0.005844204555186382 -0.027188616894381352 0.022345525998075093 0.02548904097041562 4.71799828509337 -0.0030519259705418904 12.460568867314839 -8.26157974573461 6.893198380687879 -0.03221139199973851 46.37518665951179 0.012370177850933486 -4.287403098167905 -14.7322045959325 -3.8106648858433565 -0.037464784719386975 0.037007824096934816 -0.017643537784985824 -0.035531788389855774 -10.70348290918488 -0.011669548338801414 
-0.016777848874931743 0.038216646380880535 0.01845706547757368 -0.019640932742118086 -0.008868711076335632 0.04230798084280991 -2.7050494975749215 0.09573251620507961 -0.7526765764607611 -0.852344737971478 3.743789075514091 0.41563332440298445 -1.328416838369211 -2.2469454917129057 -0.22551011255755532 0.15457326285254294 0.08109137776958499 -0.6931419365655481 0.8023214621203288 14.191495144926385 -2.095178229161878 0.26378180321006994 0.4465228893897669 -7.333487967082539 0.9978262361459688 -14.409915767969643 -0.6029116137744619 -7.755835831013562 2.4433107124940294 -13.325777214267085 73.13053132656896 3.3687678362115774 32.469668456200814 46.44701368205717 4.338739471618619 87.32373459092638 20.24733012401493 -0.37664145448201075 -2.131320273455887 4.521513919361005 -0.08218745240567968 -1.5435189779616312 -0.048533224611007585 0.010493362453657718 -56.216755814222616 0.004142497321438714 -0.02849164275102869 -56.26244890245857 -38.78997946443545 -0.033823985161022516 0.026955105902301154 0.04870420055716919 -0.03749856067663801 0.01710605029886184 0.003522791669292033 -0.02427421033929138 0.005022873410909244 -36.69033347767118 0.012182644477197063 -0.013309177241004087 0.007630088788525255 -0.008276876996534233 0.02086958262897562 0.0139107245938957 -0.004099989343673427 -0.01372438931900556 -19.739530653456054 -0.039956141002507224 0.017874094179754354 0.04764618637630285 0.0042770028186742875 -0.00102259263441267 -0.034127794536956156 0.049644676791362946 -0.03873436426255268 24.04258575998985 -0.008381236613380031 0.005636760953327855 28.85349570067479 0.020938239590315405 -0.01423694698905326 28.835751654000187 0.04761568833017602 -0.049420723641975285 6.754687301496963 1.5952258737328673 11.913829407511853 -67.08441387884618 19.69849982761822 -16.42081610797447 -37.783304282842735 8.443640190015662 -88.52425461066227 -10.56314754896234 3.925315899062075 -2.6211472710721186 -0.4866468512854525 0.10849881834069697 -8.116816400880392 0.02227577906062853 0.012335625419342543 44.56003937339704 -0.03897950573134633 0.029452205418973188 44.52888768595319 12.439172839977935 -0.01087930839899469 0.02887603540799898 -0.010386986601767248 0.005940717959040222 -0.036785382938381246 -0.0017991562452203352 0.03352247294649397 0.0008196336122906357 11.143771662950668 -0.024754025897211478 -0.037968802186847596 -0.04965376555105792 0.043900475565876555 0.02523816497489191 -0.049888944143611086 0.02279175933604375 -0.0414417680423089 4.799973452806794 -0.03285140979770706 0.001118503963109859 0.029535368824475692 0.03578041480004415 0.029812239407080363 -0.019503709241140338 0.0077607535806793115 0.036050408506078734 -5.591901502838037 0.018372435586608567 0.03468817450266075 -6.702970684183662 0.02687417434381113 -0.030013990777441185 -6.751604567551639 -0.004444545116686589 -0.028535415174886718 -0.019158274786975987 -0.033933653057421485 0.024515651917556756 8.012015448585085 3.4568639866050384 -19.174675082286768 -0.013878865434949761 10.377953637944168 -0.008216449954025772 -5.610077261263528 -15.70620568889988 3.2334573734970826 -0.01575213705579262 0.01720210942836532 -0.02424229005143743 -0.005743392835773606 4.693140516871506 -0.01315136700069329 12.442299667602525 -8.244091278854262 6.889267236679771 0.04226078371376854 46.35039610861928 -0.03952955225858673 -4.3563502430110415 -14.770674432986779 -3.835135779088202 -0.0324406776269869 0.018366899457484855 0.020472611214938995 0.013062891063908915 -10.79085245681077 -0.008849447027895772 
